<?xml version="1.0" standalone="no"?>
<!DOCTYPE svg PUBLIC "-//W3C//DTD SVG 20010904//EN"
 "http://www.w3.org/TR/2001/REC-SVG-20010904/DTD/svg10.dtd">
<svg version="1.0" xmlns="http://www.w3.org/2000/svg"
 width="138.000000pt" height="138.000000pt" viewBox="0 0 138.000000 138.000000"
 preserveAspectRatio="xMidYMid meet">
<metadata>
Created by potrace 1.14, written by Peter Selinger 2001-2017
</metadata>
<g transform="translate(0.000000,138.000000) scale(0.100000,-0.100000)"
fill="#000000" stroke="none">
<path d="M421 1000 c-25 -52 -109 -137 -170 -173 -30 -17 -31 -17 -32 0 0 10
-2 27 -5 38 -2 11 -4 44 -5 73 -1 53 -1 53 -50 77 -52 27 -74 31 -84 15 -12
-19 -15 -104 -16 -369 0 -206 2 -267 13 -277 7 -7 34 -19 61 -26 40 -10 49
-10 62 3 23 23 27 49 32 222 l5 157 70 -102 c104 -154 162 -207 241 -222 21
-4 36 2 60 24 l33 29 30 -20 c22 -15 39 -18 69 -14 22 3 60 7 85 10 25 3 59 8
75 11 l30 5 -21 -18 c-33 -28 -39 -58 -15 -82 12 -12 33 -21 47 -21 21 0 24
-4 19 -20 -5 -17 -2 -20 27 -20 29 0 34 3 36 27 4 54 20 58 123 28 67 -19 109
-26 146 -23 59 5 66 9 58 30 -5 11 -25 17 -73 20 -40 3 -88 14 -119 27 l-52
23 23 47 c12 25 29 68 36 94 8 31 20 51 32 56 18 6 18 8 4 20 -22 19 -12 160
12 178 58 42 87 99 71 141 -13 35 -26 42 -74 42 -56 0 -99 -30 -136 -95 -33
-58 -42 -63 -73 -40 -11 8 -22 11 -25 6 -17 -26 -49 -20 -101 19 -57 42 -57
42 -175 25 -16 -2 -52 -7 -80 -11 -27 -3 -87 -12 -132 -18 -46 -7 -83 -10 -83
-8 0 2 18 25 41 50 37 42 65 90 57 98 -2 1 -14 5 -28 9 -22 5 -28 0 -49 -45z
m819 -59 c0 -22 -33 -91 -43 -91 -7 0 0 107 7 119 12 18 36 0 36 -28z m-863
-124 c15 -13 96 -75 178 -137 127 -96 155 -113 184 -112 36 2 94 9 209 27 l44
7 -6 -53 c-3 -30 -5 -62 -6 -71 0 -11 -8 -18 -19 -18 -18 0 -18 3 -5 53 7 28
14 56 14 60 0 7 -52 3 -115 -9 -11 -3 -52 -7 -91 -10 -66 -6 -73 -5 -83 15 -7
11 -17 21 -23 21 -6 0 -44 25 -84 55 -40 30 -75 55 -78 55 -9 0 -28 -102 -20
-110 5 -4 37 -28 71 -52 l61 -45 -17 -26 c-9 -14 -21 -23 -27 -19 -6 4 -44 59
-86 122 -78 119 -134 179 -192 207 l-34 16 42 23 c52 28 49 28 83 1z m647 -18
c-3 -5 -14 -5 -25 1 -26 14 -24 18 6 12 14 -2 22 -8 19 -13z m-54 -393 c0 -18
-15 -36 -30 -36 -21 0 -34 26 -17 34 15 6 47 7 47 2z"/>
</g>
</svg>
