<?xml version="1.0" standalone="no"?>
<!DOCTYPE svg PUBLIC "-//W3C//DTD SVG 20010904//EN"
 "http://www.w3.org/TR/2001/REC-SVG-20010904/DTD/svg10.dtd">
<svg version="1.0" xmlns="http://www.w3.org/2000/svg"
 width="1040.000000pt" height="1040.000000pt" viewBox="0 0 1040.000000 1040.000000"
 preserveAspectRatio="xMidYMid meet">
<metadata>
Created by potrace 1.14, written by Peter Selinger 2001-2017
</metadata>
<g transform="translate(0.000000,1040.000000) scale(0.100000,-0.100000)"
fill="#000000" stroke="none">
<path d="M1123 7532 l-21 -3 0 -2330 c0 -2159 1 -2329 16 -2330 10 0 44 -1 77
-2 l60 -2 1 -65 c1 -36 2 -70 3 -76 1 -8 91 -11 315 -11 l314 -1 0 1107 c0
608 1 1113 1 1121 1 8 504 -490 1119 -1106 l1119 -1121 411 0 c227 0 412 2
412 5 0 3 -141 146 -312 319 -172 172 -728 731 -1236 1240 l-923 927 58 54
c53 49 236 221 338 317 146 138 309 291 363 341 35 33 94 88 132 124 37 36
112 106 166 157 55 50 127 118 160 150 34 32 109 102 167 156 58 54 127 119
154 145 27 26 105 99 172 162 68 63 152 142 186 175 35 33 108 101 162 152 54
50 134 125 178 166 l79 75 -124 0 c-69 0 -140 1 -159 1 l-35 1 80 75 c45 42
72 75 64 76 -16 1 -754 1 -781 0 -9 -1 -43 -27 -76 -58 -33 -32 -111 -105
-173 -163 -62 -58 -138 -130 -170 -160 -31 -30 -91 -86 -131 -124 -65 -60
-260 -244 -400 -376 -26 -25 -102 -97 -170 -160 -67 -63 -139 -131 -159 -150
-20 -19 -97 -91 -170 -160 -73 -69 -150 -141 -170 -160 -20 -19 -94 -89 -165
-155 -70 -66 -136 -129 -146 -139 -15 -15 -19 -16 -20 -5 0 8 -1 384 -1 836
l0 822 -67 -2 c-36 0 -71 2 -77 6 -6 3 -11 36 -11 72 0 36 -3 68 -6 72 -7 6
-562 11 -604 5z"/>
<path d="M5745 7532 l-21 -3 0 -2329 c0 -1282 3 -2330 6 -2331 3 0 37 -1 75
-2 l70 -2 1 -66 c1 -37 4 -71 7 -76 4 -6 543 -10 1451 -10 l1446 0 1 126 c2
240 0 392 -5 400 -3 4 -37 7 -76 6 -43 -1 -70 3 -71 9 -1 6 -2 40 -3 76 l-1
65 -1025 2 c-564 1 -1040 2 -1057 2 l-33 1 0 1989 0 1989 -62 0 c-35 0 -70 0
-79 1 -12 1 -15 15 -14 76 1 62 -1 75 -14 76 -55 2 -580 3 -596 1z"/>
</g>
</svg>
