<svg id="logo-lg_Image" data-name="logo-lg Image" xmlns="http://www.w3.org/2000/svg" viewBox="0 0 387.91 116.61"><defs><style>.cls-1{font-size:94.47px;fill:#fff;font-family:Sophia;}.cls-2{letter-spacing:-0.04em;}.cls-3{letter-spacing:-0.07em;}.cls-4{letter-spacing:-0.09em;}.cls-5{letter-spacing:-0.12em;}.cls-6{letter-spacing:-0.05em;}.cls-7{letter-spacing:-0.04em;}.cls-8{letter-spacing:-0.05em;}.cls-10,.cls-9{fill:#f25a03;}.cls-9{fill-rule:evenodd;}</style></defs><text class="cls-1" transform="translate(0 91.88) scale(1.15 1)"><tspan class="cls-2">K</tspan><tspan class="cls-3" x="52.31" y="0">a</tspan><tspan class="cls-4" x="78.88" y="0">s</tspan><tspan class="cls-2" x="97.6" y="0">r</tspan><tspan x="123.43" y="0" xml:space="preserve">a  </tspan><tspan class="cls-5" x="186.16" y="0">L</tspan><tspan class="cls-6" x="217.81" y="0">e</tspan><tspan class="cls-7" x="244.74" y="0">k</tspan><tspan class="cls-8" x="273.9" y="0">a</tspan><tspan x="302.4" y="0">n</tspan></text><path class="cls-9" d="M197.41,53.78l-37.28-28.2c-.9-.69-.34-1.43,1.25-1.65L206,17.78a7.17,7.17,0,0,1,4.54.84l37.28,28.2c.91.69.35,1.43-1.25,1.66L202,54.63a7.22,7.22,0,0,1-4.55-.85" transform="translate(-4.31 19.11)"/><path class="cls-9" d="M195.36,67.23,174.59,51.51l2.69-10.31L196.84,56a7.14,7.14,0,0,0,4.55.85l23.5-3.24-3,11.44-22,3a7.21,7.21,0,0,1-4.55-.84" transform="translate(-4.31 19.11)"/><path class="cls-10" d="M234.93,49.25l-1.79,6.84c1.5.61,2.43,1.77,2.17,2.8a2.39,2.39,0,0,1-2.38,1.41,1.76,1.76,0,0,1,0,.94l-.81,3.11a1.82,1.82,0,0,1-1.24,1.28l-2.34,20.45-1.28,0-3.26.33-.92-1.69-1.7-.44,7.7-19.14a1.84,1.84,0,0,1-.47-1.73l.81-3.11a1.86,1.86,0,0,1,.47-.82,2.36,2.36,0,0,1-1.38-2.39c.26-1,1.55-1.54,3.07-1.4l1.79-6.87Z" transform="translate(-4.31 19.11)"/></svg>